# xmcd CD database file
#
# Track frame offsets:
#	150
#	15896
#	37502
#	55879
#	65256
#	84980
#	104034
#	117288
#	129671
#	146573
#	163690
#	183516
#	202170
#	218773
#	235911
#	251592
#	265971
#
# Disc length: 3776 seconds
#
# Revision: 0
# Processed by: cddbd v1.5.2PL0 Copyright (c) Steve Scherf et al.
# Submitted via: CDex 1.51
#
DISCID=ec0ebe11
DTITLE=Pacifico Mascarenhas and Juarez Moreira - Standards
DYEAR=2009
DGENRE=Jazz
TTITLE0=Here' that a rainy day - Cute - I get a kick out of you
TTITLE1=My romance - For once in my life - The song is you
TTITLE2=I'll remember April-I've got you under my skin-Satin doll
TTITLE3=Easy to love-Like someone in love-From here to eternity
TTITLE4=A foggy day-Nevertheless-For Emily (P. Mascarenhas)
TTITLE5=Fly me to the moon-S'wonderful-One of these days
TTITLE6=Lover-Once in a while-The nearness of you
TTITLE7=Dolores my own-Duerme
TTITLE8=A smiling day in Savassi (P. Mascarenhas)-With a song in my heart-You're the top
TTITLE9=I coul write a book-Almost like being in love-Saudade de un Fox-trot (P. Mascarenhas)
TTITLE10=Menilmontant-It had to be you-There will never be another you
TTITLE11=Que reste-t-il de nous amours-My one and only love-But not for me
TTITLE12=Manhattan-Gina-Rainbown
TTITLE13=The shadow of your smile-You'll never know-I'll never smile again
TTITLE14=All the things you are-Bluesette-Hey there
TTITLE15=The days of winw and roses-They can't take that away from me-Misty
TTITLE16=Blue moon-Taking a chance on love-The show will begin
EXTD=YEAR: 2009
EXTT0=
EXTT1=
EXTT2=
EXTT3=
EXTT4=
EXTT5=
EXTT6=
EXTT7=
EXTT8=
EXTT9=
EXTT10=
EXTT11=
EXTT12=
EXTT13=
EXTT14=
EXTT15=
EXTT16=
PLAYORDER=
